# xmcd
#
# Track frame offsets:
#   150
#   20463
#   38046
#   58009
#   74821
#   94692
#   108140
#   124956
#   144024
#   167464
#
# Disc length: 2504 seconds
#
# Revision: 0
# Processed by: cddbd v1.5.1PL0 Copyright (c) Steve Scherf et al.
# Submitted via: uFREEDB 1.6.2
#
DISCID=8009c60a
DTITLE=Interacitve Reading - Interactive Reading
DYEAR=2005
DGENRE=UnClassifiable
TTITLE0=Unit 01
TTITLE1=Unit 02
TTITLE2=Unit 03
TTITLE3=Unit 04
TTITLE4=Unit 05
TTITLE5=Unit 06
TTITLE6=Unit 07
TTITLE7=Unit 08
TTITLE8=Unit 09
TTITLE9=Unit 10
EXTD=
EXTT0=
EXTT1=
EXTT2=
EXTT3=
EXTT4=
EXTT5=
EXTT6=
EXTT7=
EXTT8=
EXTT9=
PLAYORDER=
